<svg width="17" height="20" viewBox="0 0 17 20" fill="none" xmlns="http://www.w3.org/2000/svg">
<g clip-path="url(#clip0_367_40947)">
<path d="M13.8159 18.1895C12.7843 19.1895 11.658 19.0316 10.5738 18.5579C9.42639 18.0737 8.37375 18.0526 7.16323 18.5579C5.64744 19.2105 4.84744 19.0211 3.94218 18.1895C-1.19467 12.8947 -0.436772 4.83158 5.39481 4.53684C6.81586 4.61053 7.80533 5.31579 8.63691 5.37895C9.87902 5.12632 11.0685 4.4 12.3948 4.49474C13.9843 4.62105 15.1843 5.25263 15.9738 6.38947C12.6895 8.35789 13.4685 12.6842 16.479 13.8947C15.879 15.4737 15.1001 17.0421 13.8053 18.2L13.8159 18.1895ZM8.53165 4.47368C8.37375 2.12632 10.279 0.189474 12.4685 0C12.7738 2.71579 10.0053 4.73684 8.53165 4.47368Z" fill="black"/>
</g>
<defs>
<clipPath id="clip0_367_40947">
<rect width="16.8421" height="20" fill="white" transform="translate(0.0791016)"/>
</clipPath>
</defs>
</svg>
